<svg width="25" height="24" viewBox="0 0 25 24" fill="none" xmlns="http://www.w3.org/2000/svg">
<g clip-path="url(#clip0_2009_23417)">
<path d="M23.5935 9.91355L13.8042 9.91309C13.3719 9.91309 13.0215 10.2634 13.0215 10.6957V13.823C13.0215 14.2552 13.3719 14.6056 13.8041 14.6056H19.3169C18.7132 16.1722 17.5865 17.4842 16.1491 18.3178L18.4997 22.387C22.2704 20.2062 24.4997 16.3799 24.4997 12.0965C24.4997 11.4866 24.4548 11.0506 24.3649 10.5597C24.2965 10.1867 23.9727 9.91355 23.5935 9.91355Z" fill="#167EE6"/>
<path d="M12.5003 19.3044C9.80242 19.3044 7.44723 17.8304 6.18231 15.6492L2.11328 17.9945C4.18398 21.5834 8.06308 24.0001 12.5003 24.0001C14.677 24.0001 16.7309 23.414 18.5003 22.3927V22.3871L16.1496 18.3179C15.0744 18.9415 13.8302 19.3044 12.5003 19.3044Z" fill="#12B347"/>
<path d="M18.5 22.3927V22.3871L16.1494 18.3179C15.0741 18.9414 13.83 19.3044 12.5 19.3044V24.0001C14.6767 24.0001 16.7308 23.414 18.5 22.3927Z" fill="#0F993E"/>
<path d="M5.19566 12C5.19566 10.6702 5.55856 9.42613 6.18205 8.35096L2.11302 6.00562C1.08603 7.76938 0.5 9.81772 0.5 12C0.5 14.1823 1.08603 16.2307 2.11302 17.9945L6.18205 15.6491C5.55856 14.5739 5.19566 13.3298 5.19566 12Z" fill="#FFD500"/>
<path d="M12.5003 4.69566C14.2595 4.69566 15.8755 5.32078 17.1377 6.36061C17.4491 6.61711 17.9017 6.59859 18.1869 6.31336L20.4027 4.09758C20.7263 3.77395 20.7033 3.24422 20.3575 2.94431C18.2428 1.10967 15.4912 0 12.5003 0C8.06308 0 4.18398 2.41673 2.11328 6.00558L6.18231 8.35092C7.44723 6.16969 9.80242 4.69566 12.5003 4.69566Z" fill="#FF4B26"/>
<path d="M17.1374 6.36061C17.4488 6.61711 17.9015 6.59859 18.1866 6.31336L20.4024 4.09758C20.726 3.77395 20.7029 3.24422 20.3573 2.94431C18.2425 1.10963 15.491 0 12.5 0V4.69566C14.2592 4.69566 15.8752 5.32078 17.1374 6.36061Z" fill="#D93F21"/>
</g>
<defs>
<clipPath id="clip0_2009_23417">
<rect width="24" height="24" fill="white" transform="translate(0.5)"/>
</clipPath>
</defs>
</svg>
